:SAMPLES-PER-SECOND 30
:FULLY-SPECIFIED
:DEGREES
384
root  11.549 39.0326 5.50197 -168.706 -78.19 165.033
RightUpLeg  -6.46292 -3.47125 2.32342
RightLeg  30.474 -2.16667 -1.62657
RightFoot  -18.5369 -0.636532 -8.11074
RightToes  0.000482159 0.542163 -0.142577
Spine  18.0121 -3.46369 -1.61617
Spine1  9.91513 -6.64455 10.3617
HEad  3.57054 3.83247 -0.183081
LeftShoulder1  8.42238 -14.6747 -40.0773
LeftArm  14.9031 -29.5795 -46.5859
LeftForeArm  9.41688 -36.0254 -7.60133
LeftHand  -0.25398 0.0180481 5.50724
RightShoulder  4.92784 9.3881 32.2828
RightArm  -13.5324 -22.6424 33.6715
RightForeArm  25.5497 77.5561 93.5634
RightHand  -4.12911 8.34673 -34.2961
LeftUpLeg  -27.1164 7.40197 0.331712
LeftLeg  51.6323 4.97437 7.1933
LeftFoot  -1.36605 -0.017371 0.308354
LeftToes  1.06247e-005 4.65854e-005 -8.18501e-006
385
root  9.61602 39.2174 5.53857 -170.087 -75.3943 167.287
RightUpLeg  -2.96147 -2.14117 1.36548
RightLeg  27.7167 -1.71727 -1.22213
RightFoot  -19.3946 -0.691274 -7.9492
RightToes  0.000482159 0.542163 -0.142577
Spine  16.7105 -3.13469 -1.9129
Spine1  9.93424 -6.23493 9.56822
HEad  3.55169 4.54908 -0.368567
LeftShoulder1  8.4101 -14.696 -39.9618
LeftArm  13.7808 -28.7641 -45.334
LeftForeArm  9.65977 -36.5294 -7.73118
LeftHand  -0.25398 0.0180481 5.50724
RightShoulder  4.92835 9.40064 32.2494
RightArm  -12.5065 -21.3901 34.0589
RightForeArm  19.705 77.5745 87.521
RightHand  -4.14424 8.38386 -34.3269
LeftUpLeg  -27.9799 9.29684 0.292797
LeftLeg  39.1099 3.85094 3.82745
LeftFoot  -2.3274 0.00656403 0.102423
LeftToes  1.06247e-005 4.65854e-005 -8.18501e-006
386
root  7.6647 39.3515 5.54897 -171.414 -72.7662 169.683
RightUpLeg  0.660244 -1.64389 0.356248
RightLeg  24.1544 -0.683011 -0.582272
RightFoot  -20.0874 -0.673486 -7.02242
RightToes  0.000482159 0.542163 -0.142577
Spine  15.2588 -2.84451 -2.14077
Spine1  10.1592 -5.83722 8.82738
HEad  3.39403 5.11215 -0.679753
LeftShoulder1  8.45299 -14.7349 -40.0909
LeftArm  12.3366 -27.4641 -44.1952
LeftForeArm  10.2562 -37.523 -7.98514
LeftHand  -0.25398 0.0180481 5.50724
RightShoulder  4.92011 9.42794 32.1047
RightArm  -11.1029 -20.7119 33.8969
RightForeArm  16.4651 77.5218 83.8259
RightHand  -4.06288 8.20491 -34.1094
LeftUpLeg  -27.7705 11.8108 0.21946
LeftLeg  24.4137 1.65062 1.13929
LeftFoot  -2.96102 0.0589627 -0.566285
LeftToes  1.06247e-005 4.65854e-005 -8.18501e-006
387
root  5.66453 39.3735 5.54321 -172.094 -70.2152 171.014
RightUpLeg  4.3711 -1.51289 -1.22977
RightLeg  21.1786 1.23138 0.198656
RightFoot  -20.3878 -0.581283 -5.59485
RightToes  0.000482159 0.542163 -0.142577
Spine  14.2955 -2.55619 -2.77279
Spine1  10.4224 -5.46623 8.39229
HEad  3.30726 5.66257 -0.917179
LeftShoulder1  8.56091 -14.7984 -40.4959
LeftArm  10.727 -25.7718 -43.0921
LeftForeArm  10.9564 -38.8229 -8.33366
LeftHand  -0.25398 0.0180481 5.50724
RightShoulder  4.95519 9.54266 32.0385
RightArm  -9.64911 -20.5246 33.3436
RightForeArm  14.6075 77.4665 81.6203
RightHand  -3.92033 7.84887 -33.8156
LeftUpLeg  -25.9913 11.9749 1.55946
LeftLeg  9.66269 5.39158 -1.01235
LeftFoot  -3.59758 0.232896 -3.14833
LeftToes  1.06247e-005 4.65854e-005 -8.18501e-006
388
root  3.55712 39.2142 5.54758 -172.809 -67.8767 171.666
RightUpLeg  8.01084 -0.780739 -3.11938
RightLeg  20.0716 3.02011 0.75793
RightFoot  -20.603 -0.484936 -4.27062
RightToes  0.000482159 0.542163 -0.142577
Spine  13.7367 -2.38159 -3.27239
Spine1  10.6954 -5.16307 7.94065
HEad  3.49667 6.1709 -0.788117
LeftShoulder1  8.65289 -14.8499 -40.8443
LeftArm  9.45541 -24.0211 -42.1082
LeftForeArm  11.5713 -40.1701 -8.71706
LeftHand  -0.25398 0.0180481 5.50724
RightShoulder  5.02879 9.71793 32.0917
RightArm  -8.76718 -20.8134 33.0547
RightForeArm  13.7008 77.4265 80.2193
RightHand  -3.80844 7.57219 -33.5667
LeftUpLeg  -22.8734 5.34984 5.98786
LeftLeg  -1.38832 20.6268 -5.4407
LeftFoot  -4.89181 0.31281 -4.98284
LeftToes  1.06247e-005 4.65854e-005 -8.18501e-006
389
root  1.3481 38.9111 5.56424 -173.301 -66.2739 171.7
RightUpLeg  11.2353 0.611891 -5.1598
RightLeg  20.8698 4.04915 1.37151
RightFoot  -21.0545 -0.284404 -1.7429
RightToes  0.000482159 0.542163 -0.142577
Spine  13.397 -2.50618 -3.70099
Spine1  11.0992 -5.0688 7.20982
HEad  4.09661 6.39705 -0.371487
LeftShoulder1  8.71257 -14.8548 -41.1381
LeftArm  8.94001 -22.4609 -41.4175
LeftForeArm  12.0707 -41.3092 -9.05577
LeftHand  -0.25398 0.0180481 5.50724
RightShoulder  5.06261 9.79864 32.1152
RightArm  -8.66603 -21.7248 33.1691
RightForeArm  15.0262 77.4563 80.7241
RightHand  -3.768 7.51342 -33.3745
LeftUpLeg  -22.1098 5.93709 4.96567
LeftLeg  -2.97537 26.1657 -6.93915
LeftFoot  -5.86874 0.242974 -4.32978
LeftToes  1.06247e-005 4.65854e-005 -8.18501e-006
390
root  -0.913773 38.5095 5.58952 -173.366 -65.451 171.086
RightUpLeg  13.246 1.09373 -7.87444
RightLeg  24.4424 5.92121 2.7556
RightFoot  -20.6284 0.124395 3.3677
RightToes  0.000482159 0.542163 -0.142577
Spine  13.4133 -2.61753 -4.62097
Spine1  11.2 -5.2616 7.19176
HEad  5.02301 6.10192 0.116366
LeftShoulder1  8.82295 -14.8168 -41.794
LeftArm  8.9937 -21.1385 -41.213
LeftForeArm  12.5097 -41.9519 -9.24235
LeftHand  -0.25398 0.0180481 5.50724
RightShoulder  5.01004 9.6942 32.0176
RightArm  -9.08726 -23.1756 33.1797
RightForeArm  18.6543 77.5511 83.5292
RightHand  -3.71185 7.43359 -33.0993
LeftUpLeg  -23.4144 7.51644 2.44857
LeftLeg  4.17739 24.8808 -4.31119
LeftFoot  -3.22136 0.157655 -2.11726
LeftToes  1.06247e-005 4.65854e-005 -8.18501e-006
